<mxfile host="app.diagrams.net" modified="2023-11-15T15:00:11.591Z" agent="Mozilla/5.0 (Windows NT 10.0; Win64; x64) AppleWebKit/537.36 (KHTML, like Gecko) Chrome/119.0.0.0 Safari/537.36" etag="WFbtoYIteIaLLUXLcJjS" version="22.1.1" type="github">
  <diagram name="Page-1" id="929967ad-93f9-6ef4-fab6-5d389245f69c">
    <mxGraphModel dx="832" dy="726" grid="1" gridSize="10" guides="1" tooltips="1" connect="1" arrows="1" fold="1" page="1" pageScale="1.5" pageWidth="1169" pageHeight="826" background="none" math="0" shadow="0">
      <root>
        <mxCell id="0" style=";html=1;" />
        <mxCell id="1" style=";html=1;" parent="0" />
        <mxCell id="1672d66443f91eb5-23" value="Title" style="text;strokeColor=none;fillColor=none;html=1;fontSize=24;fontStyle=1;verticalAlign=middle;align=center;" parent="1" vertex="1">
          <mxGeometry x="120" y="40" width="1510" height="40" as="geometry" />
        </mxCell>
        <mxCell id="cBho5tHVx4u5MSihOpmh-1" value="MOC" style="shape=module;align=left;spacingLeft=20;align=center;verticalAlign=top;whiteSpace=wrap;html=1;fillColor=#dae8fc;strokeColor=#6c8ebf;fontSize=18;" vertex="1" parent="1">
          <mxGeometry x="250" y="690" width="120" height="70" as="geometry" />
        </mxCell>
        <mxCell id="cBho5tHVx4u5MSihOpmh-2" value="初检入库&lt;br style=&quot;font-size: 18px;&quot;&gt;" style="shape=module;align=left;spacingLeft=20;align=center;verticalAlign=top;whiteSpace=wrap;html=1;fontSize=18;" vertex="1" parent="1">
          <mxGeometry x="40" y="700" width="100" height="50" as="geometry" />
        </mxCell>
        <mxCell id="cBho5tHVx4u5MSihOpmh-6" value="上传" style="endArrow=classic;html=1;rounded=0;exitX=1;exitY=0.5;exitDx=0;exitDy=0;fontSize=18;" edge="1" parent="1" source="cBho5tHVx4u5MSihOpmh-2" target="cBho5tHVx4u5MSihOpmh-1">
          <mxGeometry relative="1" as="geometry">
            <mxPoint x="250" y="830" as="sourcePoint" />
            <mxPoint x="350" y="830" as="targetPoint" />
          </mxGeometry>
        </mxCell>
        <mxCell id="cBho5tHVx4u5MSihOpmh-8" value="电子数据包管理系统" style="shape=module;align=left;spacingLeft=20;align=center;verticalAlign=top;whiteSpace=wrap;html=1;fillColor=#ffe6cc;strokeColor=#d79b00;fontSize=18;" vertex="1" parent="1">
          <mxGeometry x="500" y="610" width="140" height="70" as="geometry" />
        </mxCell>
        <mxCell id="cBho5tHVx4u5MSihOpmh-9" value="" style="endArrow=classic;html=1;rounded=0;exitX=1;exitY=0.5;exitDx=0;exitDy=0;entryX=0;entryY=0;entryDx=0;entryDy=35;entryPerimeter=0;fontSize=18;" edge="1" parent="1" source="cBho5tHVx4u5MSihOpmh-1" target="cBho5tHVx4u5MSihOpmh-8">
          <mxGeometry width="50" height="50" relative="1" as="geometry">
            <mxPoint x="430" y="930" as="sourcePoint" />
            <mxPoint x="480" y="880" as="targetPoint" />
          </mxGeometry>
        </mxCell>
        <mxCell id="cBho5tHVx4u5MSihOpmh-10" value="健康监测" style="shape=module;align=left;spacingLeft=20;align=center;verticalAlign=top;whiteSpace=wrap;html=1;fillColor=#d5e8d4;strokeColor=#82b366;fontSize=18;" vertex="1" parent="1">
          <mxGeometry x="250" y="850" width="120" height="70" as="geometry" />
        </mxCell>
        <mxCell id="cBho5tHVx4u5MSihOpmh-11" value="" style="endArrow=classic;html=1;rounded=0;exitX=0.5;exitY=1;exitDx=0;exitDy=0;entryX=0.5;entryY=0;entryDx=0;entryDy=0;fontSize=18;" edge="1" parent="1" source="cBho5tHVx4u5MSihOpmh-1" target="cBho5tHVx4u5MSihOpmh-10">
          <mxGeometry width="50" height="50" relative="1" as="geometry">
            <mxPoint x="300" y="670" as="sourcePoint" />
            <mxPoint x="350" y="620" as="targetPoint" />
          </mxGeometry>
        </mxCell>
        <mxCell id="cBho5tHVx4u5MSihOpmh-12" value="下发工单" style="edgeLabel;html=1;align=center;verticalAlign=middle;resizable=0;points=[];fontSize=18;" vertex="1" connectable="0" parent="cBho5tHVx4u5MSihOpmh-11">
          <mxGeometry x="0.0521" y="-1" relative="1" as="geometry">
            <mxPoint as="offset" />
          </mxGeometry>
        </mxCell>
        <mxCell id="cBho5tHVx4u5MSihOpmh-13" value="车间AIP" style="shape=module;align=left;spacingLeft=20;align=center;verticalAlign=top;whiteSpace=wrap;html=1;fillColor=#d5e8d4;strokeColor=#82b366;fontSize=18;" vertex="1" parent="1">
          <mxGeometry x="250" y="540" width="120" height="70" as="geometry" />
        </mxCell>
        <mxCell id="cBho5tHVx4u5MSihOpmh-14" value="" style="endArrow=classic;html=1;rounded=0;exitX=0.6;exitY=-0.012;exitDx=0;exitDy=0;exitPerimeter=0;entryX=0.6;entryY=1;entryDx=0;entryDy=0;" edge="1" parent="1" source="cBho5tHVx4u5MSihOpmh-1" target="cBho5tHVx4u5MSihOpmh-13">
          <mxGeometry width="50" height="50" relative="1" as="geometry">
            <mxPoint x="328.44000000000005" y="612.8900000000008" as="sourcePoint" />
            <mxPoint x="330" y="620" as="targetPoint" />
          </mxGeometry>
        </mxCell>
        <mxCell id="cBho5tHVx4u5MSihOpmh-16" value="" style="endArrow=classic;html=1;rounded=0;exitX=0.4;exitY=1;exitDx=0;exitDy=0;entryX=0.4;entryY=0;entryDx=0;entryDy=0;" edge="1" parent="1" source="cBho5tHVx4u5MSihOpmh-13" target="cBho5tHVx4u5MSihOpmh-1">
          <mxGeometry width="50" height="50" relative="1" as="geometry">
            <mxPoint x="551.1764705882351" y="780" as="sourcePoint" />
            <mxPoint x="310" y="680" as="targetPoint" />
          </mxGeometry>
        </mxCell>
        <mxCell id="cBho5tHVx4u5MSihOpmh-17" value="大屏展示" style="shape=module;align=left;spacingLeft=20;align=center;verticalAlign=top;whiteSpace=wrap;html=1;fillColor=#ffe6cc;strokeColor=#d79b00;fontSize=18;" vertex="1" parent="1">
          <mxGeometry x="500" y="740" width="140" height="70" as="geometry" />
        </mxCell>
        <mxCell id="cBho5tHVx4u5MSihOpmh-18" value="" style="endArrow=classic;html=1;rounded=0;exitX=1;exitY=0.5;exitDx=0;exitDy=0;entryX=-0.001;entryY=0.4;entryDx=0;entryDy=0;entryPerimeter=0;" edge="1" parent="1" source="cBho5tHVx4u5MSihOpmh-1" target="cBho5tHVx4u5MSihOpmh-17">
          <mxGeometry width="50" height="50" relative="1" as="geometry">
            <mxPoint x="450" y="550" as="sourcePoint" />
            <mxPoint x="500" y="500" as="targetPoint" />
          </mxGeometry>
        </mxCell>
        <mxCell id="cBho5tHVx4u5MSihOpmh-19" value="电子天平" style="shape=module;align=center;spacingLeft=14;align=center;verticalAlign=top;whiteSpace=wrap;fontSize=18;spacingTop=-1;html=1;horizontal=1;spacing=13;" vertex="1" parent="1">
          <mxGeometry x="90" y="210" width="130" height="60" as="geometry" />
        </mxCell>
        <mxCell id="cBho5tHVx4u5MSihOpmh-20" value="拉力机" style="shape=module;align=center;spacingLeft=14;align=center;verticalAlign=top;whiteSpace=wrap;fontSize=18;spacingTop=-1;html=1;horizontal=1;spacing=13;" vertex="1" parent="1">
          <mxGeometry x="90" y="290" width="130" height="60" as="geometry" />
        </mxCell>
        <mxCell id="cBho5tHVx4u5MSihOpmh-21" value="图像测量仪" style="shape=module;align=center;spacingLeft=14;align=center;verticalAlign=top;whiteSpace=wrap;fontSize=18;spacingTop=-1;html=1;horizontal=1;spacing=13;" vertex="1" parent="1">
          <mxGeometry x="90" y="370" width="130" height="60" as="geometry" />
        </mxCell>
        <mxCell id="cBho5tHVx4u5MSihOpmh-22" value="位移传感器" style="shape=module;align=center;spacingLeft=14;align=center;verticalAlign=top;whiteSpace=wrap;fontSize=18;spacingTop=-1;html=1;horizontal=1;spacing=13;" vertex="1" parent="1">
          <mxGeometry x="90" y="450" width="130" height="60" as="geometry" />
        </mxCell>
        <mxCell id="cBho5tHVx4u5MSihOpmh-23" value="温湿度传感器" style="shape=module;align=left;spacingLeft=-9;align=center;verticalAlign=middle;whiteSpace=wrap;html=1;fontSize=18;direction=east;flipH=1;textDirection=rtl;labelPosition=center;verticalLabelPosition=middle;labelBackgroundColor=none;labelBorderColor=none;" vertex="1" parent="1">
          <mxGeometry x="390" y="210" width="130" height="60" as="geometry" />
        </mxCell>
        <mxCell id="cBho5tHVx4u5MSihOpmh-24" value="线组测试仪" style="shape=module;align=left;spacingLeft=-9;align=center;verticalAlign=middle;whiteSpace=wrap;html=1;fontSize=18;direction=east;flipH=1;textDirection=rtl;labelPosition=center;verticalLabelPosition=middle;labelBackgroundColor=none;labelBorderColor=none;" vertex="1" parent="1">
          <mxGeometry x="390" y="290" width="130" height="60" as="geometry" />
        </mxCell>
        <mxCell id="cBho5tHVx4u5MSihOpmh-25" value="视觉引伸计" style="shape=module;align=left;spacingLeft=-9;align=center;verticalAlign=middle;whiteSpace=wrap;html=1;fontSize=18;direction=east;flipH=1;textDirection=rtl;labelPosition=center;verticalLabelPosition=middle;labelBackgroundColor=none;labelBorderColor=none;" vertex="1" parent="1">
          <mxGeometry x="390" y="370" width="130" height="60" as="geometry" />
        </mxCell>
        <mxCell id="cBho5tHVx4u5MSihOpmh-26" value="电涡流传感器" style="shape=module;align=left;spacingLeft=-9;align=center;verticalAlign=middle;whiteSpace=wrap;html=1;fontSize=18;direction=east;flipH=1;textDirection=rtl;labelPosition=center;verticalLabelPosition=middle;labelBackgroundColor=none;labelBorderColor=none;" vertex="1" parent="1">
          <mxGeometry x="390" y="450" width="130" height="60" as="geometry" />
        </mxCell>
      </root>
    </mxGraphModel>
  </diagram>
</mxfile>
